<svg xmlns="http://www.w3.org/2000/svg" viewBox="0 0 512 512">
  <defs>
    <linearGradient id="bg" x1="70" x2="442" y1="54" y2="458" gradientUnits="userSpaceOnUse">
      <stop stop-color="#fff4df"/>
      <stop offset=".55" stop-color="#efb98b"/>
      <stop offset="1" stop-color="#6f5f88"/>
    </linearGradient>
    <linearGradient id="mic" x1="180" x2="334" y1="118" y2="386" gradientUnits="userSpaceOnUse">
      <stop stop-color="#fffdf8"/>
      <stop offset="1" stop-color="#f4eee4"/>
    </linearGradient>
  </defs>
  <rect width="512" height="512" rx="128" fill="url(#bg)"/>
  <circle cx="388" cy="118" r="54" fill="#fff7ea" opacity=".72"/>
  <path d="M118 362c72-44 114-38 164-78 38-30 72-84 142-70v158c0 28-22 50-50 50H138c-32 0-45-40-20-60Z" fill="#2f2a33" opacity=".16"/>
  <rect x="186" y="96" width="140" height="214" rx="70" fill="url(#mic)" stroke="#2a2420" stroke-width="24"/>
  <path d="M136 242c0 66 54 120 120 120s120-54 120-120" fill="none" stroke="#2a2420" stroke-width="26" stroke-linecap="round"/>
  <path d="M256 362v56M210 418h92" fill="none" stroke="#2a2420" stroke-width="26" stroke-linecap="round"/>
  <path d="M210 178h92M210 226h92" stroke="#d78b63" stroke-width="18" stroke-linecap="round" opacity=".9"/>
</svg>
